# Blender v2.93.5 OBJ File: 'Level joined.blend'
# www.blender.org
mtllib Level joined.mtl
o Plane
v -3.686542 0.000000 3.686542
v 3.686542 0.000000 3.686542
v -3.686542 0.000000 -3.686542
v 3.686542 0.000000 -3.686542
v -3.686542 3.088310 -3.686542
v -3.686542 3.088310 3.686542
v 3.686542 3.088310 3.686542
v 3.686542 3.088310 -3.686542
vt 0.000000 0.000000
vt 0.000000 1.000000
vt 1.000000 1.000000
vt 1.000000 0.000000
vt 1.000000 1.000000
vt 1.000000 0.000000
vt 0.000000 0.000000
vt 0.000000 1.000000
vn 0.0000 -1.0000 0.0000
vn 1.0000 0.0000 0.0000
vn -1.0000 0.0000 0.0000
vn 0.0000 0.0000 -1.0000
vn 0.0000 0.0000 1.0000
usemtl None
s off
f 1/1/1 3/2/1 4/3/1 2/4/1
f 2/4/2 4/3/2 8/5/2 7/6/2
f 3/2/3 1/1/3 6/7/3 5/8/3
f 4/3/4 3/2/4 5/8/4 8/5/4
f 1/1/5 2/4/5 7/6/5 6/7/5
o Cube_Cube.001
v -0.155257 0.262605 1.264057
v -0.155257 0.573120 1.264057
v -0.155257 0.262605 0.953542
v -0.155257 0.573120 0.953542
v 0.155257 0.262605 1.264057
v 0.155257 0.573120 1.264057
v 0.155257 0.262605 0.953542
v 0.155257 0.573120 0.953542
vt 0.375000 0.000000
vt 0.625000 0.000000
vt 0.625000 0.250000
vt 0.375000 0.250000
vt 0.625000 0.500000
vt 0.375000 0.500000
vt 0.625000 0.750000
vt 0.375000 0.750000
vt 0.625000 1.000000
vt 0.375000 1.000000
vt 0.125000 0.500000
vt 0.125000 0.750000
vt 0.875000 0.500000
vt 0.875000 0.750000
vn -1.0000 0.0000 0.0000
vn 0.0000 0.0000 -1.0000
vn 1.0000 0.0000 0.0000
vn 0.0000 0.0000 1.0000
vn 0.0000 -1.0000 0.0000
vn 0.0000 1.0000 0.0000
usemtl None
s off
f 9/9/6 10/10/6 12/11/6 11/12/6
f 11/12/7 12/11/7 16/13/7 15/14/7
f 15/14/8 16/13/8 14/15/8 13/16/8
f 13/16/9 14/15/9 10/17/9 9/18/9
f 11/19/10 15/14/10 13/16/10 9/20/10
f 16/13/11 12/21/11 10/22/11 14/15/11
o Cube.001_Cube.002
v -0.818174 0.262605 0.483767
v -0.818174 0.573120 0.483767
v -0.818174 0.262605 0.173252
v -0.818174 0.573120 0.173252
v -0.507659 0.262605 0.483767
v -0.507659 0.573120 0.483767
v -0.507659 0.262605 0.173252
v -0.507659 0.573120 0.173252
vt 0.375000 0.000000
vt 0.625000 0.000000
vt 0.625000 0.250000
vt 0.375000 0.250000
vt 0.625000 0.500000
vt 0.375000 0.500000
vt 0.625000 0.750000
vt 0.375000 0.750000
vt 0.625000 1.000000
vt 0.375000 1.000000
vt 0.125000 0.500000
vt 0.125000 0.750000
vt 0.875000 0.500000
vt 0.875000 0.750000
vn -1.0000 0.0000 0.0000
vn 0.0000 0.0000 -1.0000
vn 1.0000 0.0000 0.0000
vn 0.0000 0.0000 1.0000
vn 0.0000 -1.0000 0.0000
vn 0.0000 1.0000 0.0000
usemtl None
s off
f 17/23/12 18/24/12 20/25/12 19/26/12
f 19/26/13 20/25/13 24/27/13 23/28/13
f 23/28/14 24/27/14 22/29/14 21/30/14
f 21/30/15 22/29/15 18/31/15 17/32/15
f 19/33/16 23/28/16 21/30/16 17/34/16
f 24/27/17 20/35/17 18/36/17 22/29/17
o Cube.002_Cube.003
v -0.818174 0.825281 -0.131581
v -0.818174 1.135796 -0.131581
v -0.818174 0.825281 -0.442096
v -0.818174 1.135796 -0.442096
v -0.507659 0.825281 -0.131581
v -0.507659 1.135796 -0.131581
v -0.507659 0.825281 -0.442096
v -0.507659 1.135796 -0.442096
vt 0.375000 0.000000
vt 0.625000 0.000000
vt 0.625000 0.250000
vt 0.375000 0.250000
vt 0.625000 0.500000
vt 0.375000 0.500000
vt 0.625000 0.750000
vt 0.375000 0.750000
vt 0.625000 1.000000
vt 0.375000 1.000000
vt 0.125000 0.500000
vt 0.125000 0.750000
vt 0.875000 0.500000
vt 0.875000 0.750000
vn -1.0000 0.0000 0.0000
vn 0.0000 0.0000 -1.0000
vn 1.0000 0.0000 0.0000
vn 0.0000 0.0000 1.0000
vn 0.0000 -1.0000 0.0000
vn 0.0000 1.0000 0.0000
usemtl None
s off
f 25/37/18 26/38/18 28/39/18 27/40/18
f 27/40/19 28/39/19 32/41/19 31/42/19
f 31/42/20 32/41/20 30/43/20 29/44/20
f 29/44/21 30/43/21 26/45/21 25/46/21
f 27/47/22 31/42/22 29/44/22 25/48/22
f 32/41/23 28/49/23 26/50/23 30/43/23
o Cube.003_Cube.004
v -1.512898 0.468554 -0.131581
v -1.512898 0.779069 -0.131581
v -1.512898 0.468554 -0.442096
v -1.512898 0.779069 -0.442096
v -1.202384 0.468554 -0.131581
v -1.202384 0.779069 -0.131581
v -1.202384 0.468554 -0.442096
v -1.202384 0.779069 -0.442096
vt 0.375000 0.000000
vt 0.625000 0.000000
vt 0.625000 0.250000
vt 0.375000 0.250000
vt 0.625000 0.500000
vt 0.375000 0.500000
vt 0.625000 0.750000
vt 0.375000 0.750000
vt 0.625000 1.000000
vt 0.375000 1.000000
vt 0.125000 0.500000
vt 0.125000 0.750000
vt 0.875000 0.500000
vt 0.875000 0.750000
vn -1.0000 0.0000 0.0000
vn 0.0000 0.0000 -1.0000
vn 1.0000 0.0000 0.0000
vn 0.0000 0.0000 1.0000
vn 0.0000 -1.0000 0.0000
vn 0.0000 1.0000 0.0000
usemtl None
s off
f 33/51/24 34/52/24 36/53/24 35/54/24
f 35/54/25 36/53/25 40/55/25 39/56/25
f 39/56/26 40/55/26 38/57/26 37/58/26
f 37/58/27 38/57/27 34/59/27 33/60/27
f 35/61/28 39/56/28 37/58/28 33/62/28
f 40/55/29 36/63/29 34/64/29 38/57/29
