# Blender v2.93.5 OBJ File: 'Level platofrm.blend'
# www.blender.org
mtllib Level platofrm.mtl
o Plane
v -50.000000 0.000000 50.000000
v 50.000000 0.000000 50.000000
v -50.000000 0.000000 -50.000000
v 50.000000 0.000000 -50.000000
v -50.000000 0.000000 -35.714287
v -50.000000 0.000000 -21.428572
v -50.000000 0.000000 -7.142857
v -50.000000 0.000000 7.142858
v -50.000000 0.000000 21.428574
v -50.000000 0.000000 35.714287
v -35.714287 0.000000 50.000000
v -21.428572 0.000000 50.000000
v -7.142857 0.000000 50.000000
v 7.142858 0.000000 50.000000
v 21.428574 0.000000 50.000000
v 35.714287 0.000000 50.000000
v 50.000000 0.000000 35.714287
v 50.000000 0.000000 21.428572
v 50.000000 0.000000 7.142857
v 50.000000 0.000000 -35.714287
v 35.714287 0.000000 -50.000000
v 21.428572 0.000000 -50.000000
v 7.142857 0.000000 -50.000000
v -7.142858 0.000000 -50.000000
v -21.428574 0.000000 -50.000000
v -35.714287 0.000000 -50.000000
v -35.714287 0.000000 35.714287
v -35.714287 0.000000 21.428572
v -35.714287 0.000000 7.142857
v -35.714287 0.000000 -7.142858
v -35.714287 0.000000 -21.428574
v -35.714287 0.000000 -35.714287
v -21.428572 0.000000 35.714287
v -21.428572 0.000000 21.428572
v -21.428572 0.000000 7.142857
v -21.428572 0.000000 -7.142858
v -21.428572 0.000000 -21.428574
v -21.428574 0.000000 -35.714287
v -7.142857 0.000000 35.714287
v -7.142857 0.000000 21.428572
v -7.142857 0.000000 7.142857
v -7.142857 0.000000 -7.142858
v -7.142857 0.000000 -21.428574
v -7.142858 0.000000 -35.714287
v 7.142858 0.000000 35.714287
v 7.142858 0.000000 21.428572
v 21.013412 0.000000 7.142857
v 7.142858 0.000000 -7.142858
v 7.142857 0.000000 -21.428574
v 7.142857 0.000000 -35.714287
v 21.428574 0.000000 35.714287
v 21.428574 0.000000 21.428572
v 50.000000 13.311226 7.142857
v 21.428574 0.000000 -7.142858
v 21.428574 0.000000 -21.428574
v 21.428574 0.000000 -35.714287
v 35.714287 0.000000 35.714287
v 35.714287 0.000000 21.428572
v 35.714287 0.000000 7.142857
v 35.714287 0.000000 -7.142858
v 35.714287 0.000000 -21.428574
v 35.714287 0.000000 -35.714287
v -21.428574 8.099448 -50.000000
v -35.714287 8.099448 -50.000000
v -35.714287 8.099448 -35.714287
v -35.714287 8.099448 -7.142858
v -35.714287 8.099448 -21.428574
v -21.428574 8.099448 -35.714287
v -21.428572 8.099448 -7.142858
v -21.428572 8.099448 -21.428574
v -21.428572 5.858350 21.428572
v -21.428572 5.858350 7.142857
v -21.428572 5.858350 -7.142858
v -7.142857 5.858350 21.428572
v -7.142857 5.858350 7.142857
v -7.142857 5.858350 -7.142858
v 7.142858 11.088273 50.000000
v 21.428574 11.088273 50.000000
v 7.142858 11.088273 35.714287
v 7.142858 11.088273 21.428572
v 21.013412 11.088273 7.142857
v 21.428574 11.088273 35.714287
v 21.428574 11.088273 21.428572
v 50.000000 13.311226 -7.142858
v 50.000000 13.311226 -21.428574
v 50.000000 13.311226 -35.714287
v 35.714287 13.311226 7.142857
v 35.714287 13.311226 -7.142858
v 35.714287 13.311226 -21.428574
v 35.714287 13.311226 -35.714287
v -50.000000 24.202528 50.000000
v 50.000000 24.202528 50.000000
v -50.000000 24.202528 -50.000000
v 50.000000 24.202528 -50.000000
v -50.000000 24.202528 -35.714287
v -50.000000 24.202528 -21.428572
v -50.000000 24.202528 -7.142857
v -50.000000 24.202528 7.142858
v -50.000000 24.202528 21.428574
v -50.000000 24.202528 35.714287
v -35.714287 24.202528 50.000000
v -21.428572 24.202528 50.000000
v -7.142857 24.202528 50.000000
v 7.142858 24.202528 50.000000
v 21.428574 24.202528 50.000000
v 35.714287 24.202528 50.000000
v 50.000000 24.202528 35.714287
v 50.000000 24.202528 21.428572
v 50.000000 24.202528 7.142857
v 50.000000 24.202528 -35.714287
v 35.714287 24.202528 -50.000000
v 21.428572 24.202528 -50.000000
v 7.142857 24.202528 -50.000000
v -7.142858 24.202528 -50.000000
v -21.428574 24.202528 -50.000000
v -35.714287 24.202528 -50.000000
v 50.000000 24.202528 7.142857
v -21.428574 24.202528 -50.000000
v -35.714287 24.202528 -50.000000
v 7.142858 24.202528 50.000000
v 21.428574 24.202528 50.000000
v 50.000000 24.202528 -7.142858
v 50.000000 24.202528 -21.428574
v 50.000000 24.202528 -35.714287
vt 0.857143 0.857143
vt 1.000000 0.857143
vt 1.000000 1.000000
vt 0.857143 1.000000
vt 0.000000 0.857143
vt 0.142857 0.857143
vt 0.142857 1.000000
vt 0.000000 1.000000
vt 0.142857 0.571429
vt 0.285714 0.571429
vt 0.285714 0.571429
vt 0.142857 0.571429
vt 0.285714 0.857143
vt 0.428571 0.857143
vt 0.428571 1.000000
vt 0.285714 1.000000
vt 0.571429 0.857143
vt 0.571429 1.000000
vt 0.714286 0.857143
vt 0.714286 1.000000
vt 0.000000 0.000000
vt 0.142857 0.000000
vt 0.142857 0.142857
vt 0.000000 0.142857
vt 0.142857 0.285714
vt 0.000000 0.285714
vt 0.142857 0.428571
vt 0.000000 0.428571
vt 0.000000 0.571429
vt 0.142857 0.714286
vt 0.000000 0.714286
vt 0.285714 0.000000
vt 0.285714 0.142857
vt 0.285714 0.285714
vt 0.285714 0.428571
vt 0.142857 0.857143
vt 0.142857 1.000000
vt 0.285714 0.714286
vt 0.285714 0.857143
vt 0.285714 0.714286
vt 0.428571 0.000000
vt 0.428571 0.142857
vt 0.428571 0.285714
vt 0.428571 0.285714
vt 0.285714 0.285714
vt 0.428571 0.571429
vt 0.285714 0.571429
vt 0.428571 0.571429
vt 0.428571 0.714286
vt 0.571429 0.000000
vt 0.571429 0.142857
vt 0.571429 0.285714
vt 0.571429 0.428571
vt 0.428571 0.428571
vt 0.571429 0.571429
vt 0.571429 0.714286
vt 0.571429 0.000000
vt 0.571429 0.142857
vt 0.571429 0.285714
vt 0.571429 0.428571
vt 0.857143 0.428571
vt 1.000000 0.428571
vt 1.000000 0.571429
vt 0.857143 0.571429
vt 0.714286 0.428571
vt 0.714286 0.571429
vt 0.714286 0.714286
vt 0.714286 0.000000
vt 0.857143 0.000000
vt 0.857143 0.142857
vt 0.714286 0.142857
vt 0.857143 0.285714
vt 0.714286 0.285714
vt 0.857143 0.428571
vt 0.857143 0.571429
vt 0.857143 0.714286
vt 1.000000 0.000000
vt 1.000000 0.142857
vt 1.000000 0.285714
vt 1.000000 0.428571
vt 0.857143 0.714286
vt 0.285714 1.000000
vt 0.142857 0.714286
vt 0.428571 0.428571
vt 0.285714 0.428571
vt 0.714286 0.000000
vt 0.714286 0.142857
vt 0.714286 0.285714
vt 0.714286 0.428571
vt 1.000000 0.714286
vt 1.000000 0.857143
vt 0.857143 0.857143
vt 0.428571 1.000000
vt 0.285714 1.000000
vt 0.000000 0.285714
vt 0.000000 0.142857
vt 1.000000 0.428571
vt 1.000000 0.428571
vt 0.142857 1.000000
vt 0.142857 1.000000
vt 0.000000 0.000000
vt 0.142857 0.000000
vt 1.000000 0.857143
vt 1.000000 0.857143
vt 1.000000 0.714286
vt 0.571429 0.000000
vt 0.571429 0.000000
vt 0.285714 0.000000
vt 0.428571 0.000000
vt 0.285714 1.000000
vt 0.714286 0.000000
vt 0.714286 0.000000
vt 0.857143 0.000000
vt 1.000000 0.000000
vt 1.000000 0.142857
vt 1.000000 1.000000
vt 1.000000 0.571429
vt 1.000000 0.285714
vt 0.000000 1.000000
vt 0.000000 0.857143
vt 0.857143 1.000000
vt 0.000000 0.714286
vt 0.714286 1.000000
vt 0.000000 0.571429
vt 0.571429 1.000000
vt 0.000000 0.428571
vn 0.0000 1.0000 0.0000
vn 0.0000 0.0000 1.0000
vn -1.0000 0.0000 0.0000
vn 1.0000 0.0000 -0.0000
vn 0.0000 0.0000 -1.0000
vn -0.7175 0.0000 -0.6966
vn 0.9996 0.0000 -0.0290
usemtl None
s off
f 62/1/1 20/2/1 4/3/1 21/4/1
f 5/5/1 32/6/1 26/7/1 3/8/1
f 30/9/2 36/10/2 69/11/2 66/12/2
f 38/13/1 44/14/1 24/15/1 25/16/1
f 44/14/1 50/17/1 23/18/1 24/15/1
f 50/17/1 56/19/1 22/20/1 23/18/1
f 56/19/1 62/1/1 21/4/1 22/20/1
f 1/21/1 11/22/1 27/23/1 10/24/1
f 10/24/1 27/23/1 28/25/1 9/26/1
f 9/26/1 28/25/1 29/27/1 8/28/1
f 8/28/1 29/27/1 30/9/1 7/29/1
f 7/29/1 30/9/1 31/30/1 6/31/1
f 6/31/1 31/30/1 32/6/1 5/5/1
f 11/22/1 12/32/1 33/33/1 27/23/1
f 27/23/1 33/33/1 34/34/1 28/25/1
f 28/25/1 34/34/1 35/35/1 29/27/1
f 29/27/1 35/35/1 36/10/1 30/9/1
f 26/7/3 32/6/3 65/36/3 64/37/3
f 37/38/4 38/13/4 68/39/4 70/40/4
f 12/32/1 13/41/1 39/42/1 33/33/1
f 33/33/1 39/42/1 40/43/1 34/34/1
f 34/34/2 40/43/2 74/44/2 71/45/2
f 42/46/5 36/10/5 73/47/5 76/48/5
f 36/10/1 42/46/1 43/49/1 37/38/1
f 37/38/1 43/49/1 44/14/1 38/13/1
f 13/41/1 14/50/1 45/51/1 39/42/1
f 39/42/1 45/51/1 46/52/1 40/43/1
f 40/43/1 46/52/1 47/53/1 41/54/1
f 41/54/1 47/53/1 48/55/1 42/46/1
f 42/46/1 48/55/1 49/56/1 43/49/1
f 43/49/1 49/56/1 50/17/1 44/14/1
f 45/51/3 14/50/3 77/57/3 79/58/3
f 47/53/6 46/52/6 80/59/6 81/60/6
f 87/61/1 53/62/1 84/63/1 88/64/1
f 47/65/1 54/66/1 48/55/1
f 48/55/1 54/66/1 55/67/1 49/56/1
f 49/56/1 55/67/1 56/19/1 50/17/1
f 15/68/1 16/69/1 57/70/1 51/71/1
f 51/71/1 57/70/1 58/72/1 52/73/1
f 52/73/1 58/72/1 59/74/1 47/65/1
f 47/65/1 59/74/1 60/75/1 54/66/1
f 54/66/1 60/75/1 61/76/1 55/67/1
f 55/67/1 61/76/1 62/1/1 56/19/1
f 16/69/1 2/77/1 17/78/1 57/70/1
f 57/70/1 17/78/1 18/79/1 58/72/1
f 58/72/1 18/79/1 19/80/1 59/74/1
f 61/76/3 60/75/3 88/64/3 89/81/3
f 65/36/1 68/39/1 63/82/1 64/37/1
f 66/12/1 69/11/1 70/40/1 67/83/1
f 67/83/1 70/40/1 68/39/1 65/36/1
f 38/13/4 25/16/4 63/82/4 68/39/4
f 31/30/3 30/9/3 66/12/3 67/83/3
f 36/10/4 37/38/4 70/40/4 69/11/4
f 32/6/3 31/30/3 67/83/3 65/36/3
f 71/45/1 74/44/1 75/84/1 72/85/1
f 72/85/1 75/84/1 76/48/1 73/47/1
f 36/10/3 35/35/3 72/85/3 73/47/3
f 41/54/4 42/46/4 76/48/4 75/84/4
f 35/35/3 34/34/3 71/45/3 72/85/3
f 40/43/4 41/54/4 75/84/4 74/44/4
f 77/57/1 78/86/1 82/87/1 79/58/1
f 79/58/1 82/87/1 83/88/1 80/59/1
f 80/59/1 83/88/1 81/60/1
f 52/73/7 47/65/7 81/89/7 83/88/7
f 15/68/4 51/71/4 82/87/4 78/86/4
f 46/52/3 45/51/3 79/58/3 80/59/3
f 51/71/4 52/73/4 83/88/4 82/87/4
f 88/64/1 84/63/1 85/90/1 89/81/1
f 89/81/1 85/90/1 86/91/1 90/92/1
f 59/74/2 19/80/2 53/62/2 87/61/2
f 62/1/3 61/76/3 89/81/3 90/92/3
f 20/2/5 62/1/5 90/92/5 86/91/5
f 60/75/3 59/74/3 87/61/3 88/64/3
f 25/16/2 24/15/2 114/93/2 115/94/2
f 10/24/4 9/26/4 99/95/4 100/96/4
f 53/62/2 19/80/2 109/97/2 117/98/2
f 26/7/4 64/37/4 119/99/4 116/100/4
f 11/22/5 1/21/5 91/101/5 101/102/5
f 20/2/2 86/91/2 124/103/2 110/104/2
f 86/91/3 85/90/3 123/105/3 124/103/3
f 77/57/4 14/50/4 104/106/4 120/107/4
f 12/32/5 11/22/5 101/102/5 102/108/5
f 13/41/5 12/32/5 102/108/5 103/109/5
f 64/37/2 63/82/2 118/110/2 119/99/2
f 63/82/3 25/16/3 115/94/3 118/110/3
f 14/50/5 13/41/5 103/109/5 104/106/5
f 78/86/5 77/57/5 120/107/5 121/111/5
f 1/21/4 10/24/4 100/96/4 91/101/4
f 16/69/5 15/68/5 105/112/5 106/113/5
f 2/77/5 16/69/5 106/113/5 92/114/5
f 15/68/3 78/86/3 121/111/3 105/112/3
f 17/78/3 2/77/3 92/114/3 107/115/3
f 4/3/3 20/2/3 110/104/3 94/116/3
f 84/63/3 53/62/3 117/98/3 122/117/3
f 18/79/3 17/78/3 107/115/3 108/118/3
f 3/8/2 26/7/2 116/100/2 93/119/2
f 85/90/3 84/63/3 122/117/3 123/105/3
f 19/80/3 18/79/3 108/118/3 109/97/3
f 5/5/4 3/8/4 93/119/4 95/120/4
f 21/4/2 4/3/2 94/116/2 111/121/2
f 6/31/4 5/5/4 95/120/4 96/122/4
f 22/20/2 21/4/2 111/121/2 112/123/2
f 7/29/4 6/31/4 96/122/4 97/124/4
f 23/18/2 22/20/2 112/123/2 113/125/2
f 8/28/4 7/29/4 97/124/4 98/126/4
f 24/15/2 23/18/2 113/125/2 114/93/2
f 9/26/4 8/28/4 98/126/4 99/95/4
