# Blender v2.93.3 OBJ File: ''
# www.blender.org
mtllib testCube.mtl
o Plane
v -12.655945 0.000000 12.655945
v 12.655945 0.000000 12.655945
v -12.655945 0.000000 -12.655945
v 12.655945 0.000000 -12.655945
v -10.532757 0.000000 -10.532757
v -10.532757 0.000000 10.532757
v 10.532757 0.000000 10.532757
v 10.532757 0.000000 -10.532757
v -12.655945 13.887987 12.655945
v 12.655945 13.887987 12.655945
v -12.655945 13.887987 -12.655945
v 12.655945 13.887987 -12.655945
v -10.532757 13.887987 -10.532757
v -10.532757 13.887987 10.532757
v 10.532757 13.887987 10.532757
v 10.532757 13.887987 -10.532757
vt 0.083881 0.916119
vt 0.000000 0.000000
vt 0.083881 0.083881
vt 0.000000 0.000000
vt 0.083881 0.916119
vt 0.083881 0.083881
vt 1.000000 0.000000
vt 0.916119 0.083881
vt 1.000000 1.000000
vt 0.916119 0.916119
vt 0.000000 1.000000
vt 1.000000 0.000000
vt 0.916119 0.083881
vt 1.000000 1.000000
vt 0.916119 0.916119
vt 0.000000 1.000000
vn 0.0000 1.0000 0.0000
vn 0.0000 -1.0000 0.0000
vn 0.0000 0.0000 -1.0000
vn 0.0000 0.0000 1.0000
vn 1.0000 0.0000 0.0000
vn -1.0000 0.0000 0.0000
usemtl None
s off
f 13/1/1 9/2/1 14/3/1
f 1/4/2 5/5/2 6/6/2
f 2/7/2 6/6/2 7/8/2
f 4/9/2 7/8/2 8/10/2
f 3/11/2 8/10/2 5/5/2
f 14/3/1 10/12/1 15/13/1
f 15/13/1 12/14/1 16/15/1
f 16/15/1 11/16/1 13/1/1
f 3/11/3 12/14/3 4/9/3
f 2/7/4 9/2/4 1/4/4
f 8/10/4 13/1/4 5/5/4
f 6/6/3 15/13/3 7/8/3
f 4/9/5 10/12/5 2/7/5
f 1/4/6 11/16/6 3/11/6
f 7/8/6 16/15/6 8/10/6
f 5/5/5 14/3/5 6/6/5
f 13/1/1 11/16/1 9/2/1
f 1/4/2 3/11/2 5/5/2
f 2/7/2 1/4/2 6/6/2
f 4/9/2 2/7/2 7/8/2
f 3/11/2 4/9/2 8/10/2
f 14/3/1 9/2/1 10/12/1
f 15/13/1 10/12/1 12/14/1
f 16/15/1 12/14/1 11/16/1
f 3/11/3 11/16/3 12/14/3
f 2/7/4 10/12/4 9/2/4
f 8/10/4 16/15/4 13/1/4
f 6/6/3 14/3/3 15/13/3
f 4/9/5 12/14/5 10/12/5
f 1/4/6 9/2/6 11/16/6
f 7/8/6 15/13/6 16/15/6
f 5/5/5 13/1/5 14/3/5
