# Blender v2.93.3 OBJ File: 'cube.blend'
# www.blender.org
mtllib testCube.mtl
o Cube
v -0.516603 -0.829373 -0.829374
v -0.516602 0.829374 -0.829374
v -0.516603 -0.829373 0.829374
v -0.516602 0.829374 0.829374
v 0.516602 -0.829374 -0.829374
v 0.516603 0.829373 -0.829374
v 0.516602 -0.829374 0.829374
v 0.516603 0.829373 0.829374
v 0.516603 1.000000 -1.000000
v 0.516603 1.000000 1.000000
v -0.516603 -1.000000 -1.000000
v -0.516602 1.000000 -1.000000
v 0.516602 -1.000000 1.000000
v -0.516603 -1.000000 1.000000
v -0.516602 1.000000 1.000000
v 0.516602 -1.000000 -1.000000
vt 0.625000 0.500000
vt 0.875000 0.500000
vt 0.875000 0.750000
vt 0.625000 0.750000
vt 0.375000 0.750000
vt 0.625000 1.000000
vt 0.375000 1.000000
vt 0.000000 0.000000
vt 0.000000 0.000000
vt 0.000000 0.000000
vt 0.000000 0.000000
vt 0.125000 0.500000
vt 0.375000 0.500000
vt 0.125000 0.750000
vt 0.000000 0.000000
vt 0.000000 0.000000
vt 0.375000 0.250000
vt 0.625000 0.250000
vt 0.396328 0.021328
vt 0.396328 0.228672
vt 0.375000 0.000000
vt 0.603672 0.521328
vt 0.396328 0.521328
vt 0.603672 0.021328
vt 0.625000 0.000000
vt 0.396328 0.728672
vt 0.603672 0.728672
vt 0.603672 0.228672
vt 0.000000 0.000000
vt 0.000000 0.000000
vn -0.0000 -1.0000 0.0000
vn 0.0000 0.0000 1.0000
vn 0.0000 1.0000 0.0000
vn 0.0000 0.0000 -1.0000
vn 1.0000 0.0000 0.0000
vn -1.0000 0.0000 -0.0000
usemtl Material
s off
f 11/1/1 16/2/1 13/3/1 14/4/1
f 15/5/2 14/4/2 13/6/2 10/7/2
f 8/8/1 4/9/1 2/10/1 6/11/1
f 9/12/3 12/13/3 15/5/3 10/14/3
f 7/15/4 3/16/4 4/9/4 8/8/4
f 9/17/4 16/18/4 11/1/4 12/13/4
f 8/19/5 6/20/5 9/17/5 10/21/5
f 1/22/6 2/23/6 12/13/6 11/1/6
f 7/24/5 8/19/5 10/21/5 13/25/5
f 4/26/6 3/27/6 14/4/6 15/5/6
f 6/20/5 5/28/5 16/18/5 9/17/5
f 3/27/6 1/22/6 11/1/6 14/4/6
f 5/28/5 7/24/5 13/25/5 16/18/5
f 2/23/6 4/26/6 15/5/6 12/13/6
f 6/11/2 2/10/2 1/29/2 5/30/2
f 1/29/3 3/16/3 7/15/3 5/30/3
f 3/16/5 1/29/5 2/10/5 4/9/5
